<svg  xmlns="http://www.w3.org/2000/svg" viewBox="0 0 14.78 13.37"><path d="M13.43,10h0a.91.91,0,0,0,.35-.53l1-4.62V4.72h0V4.6C14.72,1.85,11.78,0,7.4,0S.08,1.84,0,4.59v.09H0v.15L1.19,9.47a1,1,0,0,0,.32.49h0a1.35,1.35,0,0,0,.77.24h.15l-.71,3c0,.08,0,.15.14.17h.52a.18.18,0,0,0,.17-.1l1.32-3.06h7.05l1.33,3.06a.21.21,0,0,0,.17.1h.49a.16.16,0,0,0,.17-.14h0l-.72-3h.23A1.31,1.31,0,0,0,13.43,10Zm0-.59a.44.44,0,0,1-.13.25L12,8.43l.47-3.88c.07-.34.81-.61,1.29-.54a.73.73,0,0,1,.67.63h0a.24.24,0,0,1,0,.12Zm-1.64-2.2A15,15,0,0,0,9,6.66a9,9,0,0,1,1.69-4.52,2.45,2.45,0,0,1,1.55,2.31h0ZM8.61,6.63a15.63,15.63,0,0,0-2.37,0A9.16,9.16,0,0,0,4.52,2,8.08,8.08,0,0,1,7.4,1.55a8.07,8.07,0,0,1,3,.48A8.93,8.93,0,0,0,8.67,6.66ZM4.19,2.09A8.79,8.79,0,0,1,5.9,6.65a15,15,0,0,0-2.81.54L2.64,4.45h0A2.48,2.48,0,0,1,4.19,2.09ZM3.28,8.31l-.09-.83a15.23,15.23,0,0,1,8.62,0l-.1.83Zm4.11-8c3.84,0,6.46,1.39,7,3.61a1.31,1.31,0,0,0-.52-.2,2.18,2.18,0,0,0-1.36.34c-.23-1.82-2-2.82-5.07-2.82s-4.84,1-5.07,2.81A2.09,2.09,0,0,0,1,3.73a1.28,1.28,0,0,0-.49.19C.94,1.68,3.56.29,7.4.29Zm-7,4.5V4.68h0A.72.72,0,0,1,1,4h.16a1.31,1.31,0,0,1,1.12.52L3,8.46,1.67,9.7a.55.55,0,0,1-.12-.24ZM1.94,9.86,3.19,8.6h8.53L13,9.84a.87.87,0,0,1-.42.1H2.34a.9.9,0,0,1-.42-.1Zm.4,3.26H2.19l.68-2.87h.71Zm10.43,0h-.15l-1.25-2.87h.72Z"/></svg>