<svg id="logo" data-name="Capa 1" xmlns="http://www.w3.org/2000/svg" viewBox="0 0 122.59 13.39"><path d="M5.52,10.83H2l-.6,1.71H0L3,4.19H4.57l3,8.35H6.12ZM5.14,9.72,3.78,5.84,2.41,9.72Z"/><path d="M15,4.2,12.28,9.51v3H10.91v-3L8.14,4.2H9.66l1.93,4.09L13.52,4.2Z"/><path d="M16.23,6.15a4,4,0,0,1,1.55-1.51,4.24,4.24,0,0,1,2.14-.55,4.39,4.39,0,0,1,2.37.65A3.82,3.82,0,0,1,23.8,6.6H22.15a2.17,2.17,0,0,0-.9-1,2.73,2.73,0,0,0-1.33-.32,2.93,2.93,0,0,0-1.48.37,2.61,2.61,0,0,0-1,1.07,3.46,3.46,0,0,0-.37,1.62A3.46,3.46,0,0,0,17.43,10a2.61,2.61,0,0,0,1,1.07,2.84,2.84,0,0,0,1.48.38,2.73,2.73,0,0,0,1.33-.32,2.17,2.17,0,0,0,.9-1H23.8A3.75,3.75,0,0,1,22.29,12a4.39,4.39,0,0,1-2.37.65,4.27,4.27,0,0,1-2.15-.55,4.06,4.06,0,0,1-1.54-1.51,4.27,4.27,0,0,1-.57-2.2A4.27,4.27,0,0,1,16.23,6.15Z"/><path d="M29.72,12.54,27.8,9.2h-1v3.34H25.39V4.2h2.88a3.67,3.67,0,0,1,1.63.33,2.42,2.42,0,0,1,1,.9,2.47,2.47,0,0,1,.33,1.26,2.56,2.56,0,0,1-.47,1.49,2.42,2.42,0,0,1-1.46.9l2.06,3.46Zm-3-4.43h1.51a1.62,1.62,0,0,0,1.16-.38,1.4,1.4,0,0,0,.39-1,1.34,1.34,0,0,0-.38-1,1.67,1.67,0,0,0-1.17-.37H26.76Z"/><path d="M34.64,12.08a4.07,4.07,0,0,1-1.55-1.53,4.27,4.27,0,0,1-.57-2.2,4.27,4.27,0,0,1,.57-2.2,4,4,0,0,1,1.55-1.51,4.46,4.46,0,0,1,4.29,0,4.09,4.09,0,0,1,1.55,1.51A4.36,4.36,0,0,1,41,8.35a4.36,4.36,0,0,1-.56,2.2,4.14,4.14,0,0,1-1.55,1.53,4.53,4.53,0,0,1-4.29,0Zm3.62-1a2.77,2.77,0,0,0,1-1.08,3.53,3.53,0,0,0,.37-1.63,3.46,3.46,0,0,0-.37-1.62,2.67,2.67,0,0,0-1-1.07,3.14,3.14,0,0,0-3,0,2.61,2.61,0,0,0-1,1.07,3.34,3.34,0,0,0-.37,1.62A3.41,3.41,0,0,0,34.29,10a2.7,2.7,0,0,0,1,1.08,3.15,3.15,0,0,0,3,0Z"/><path d="M49.24,12.54H47.87L43.75,6.31v6.23H42.38V4.19h1.37l4.12,6.21V4.19h1.37Z"/><path d="M53.72,7H52.2v5.84h-.84V7h-.92V6.29h.92V5.84a2.07,2.07,0,0,1,.54-1.58,2.62,2.62,0,0,1,1.77-.5v.72a1.64,1.64,0,0,0-1.14.31,1.41,1.41,0,0,0-.33,1v.45h1.52Z"/><path d="M56.25,12.53a3,3,0,0,1-1.17-1.18,3.63,3.63,0,0,1-.42-1.78,3.5,3.5,0,0,1,.43-1.78,3.08,3.08,0,0,1,1.17-1.18,3.63,3.63,0,0,1,3.35,0,3,3,0,0,1,1.17,1.18,3.5,3.5,0,0,1,.43,1.78,3.62,3.62,0,0,1-.43,1.77,3,3,0,0,1-1.19,1.19,3.54,3.54,0,0,1-1.68.41A3.38,3.38,0,0,1,56.25,12.53Zm2.86-.62A2.21,2.21,0,0,0,60,11a2.89,2.89,0,0,0,.34-1.46A3,3,0,0,0,60,8.11a2.24,2.24,0,0,0-.89-.89,2.63,2.63,0,0,0-2.4,0,2.16,2.16,0,0,0-.88.89,3,3,0,0,0-.33,1.46A3,3,0,0,0,55.84,11a2.17,2.17,0,0,0,.87.88,2.55,2.55,0,0,0,2.4,0Z"/><path d="M64.43,6.51a2.67,2.67,0,0,1,1.4-.34v.88H65.6a2.08,2.08,0,0,0-1.46.49,2.11,2.11,0,0,0-.56,1.64v3.66h-.84V6.29h.84V7.46A2.07,2.07,0,0,1,64.43,6.51Z"/><path d="M72.08,6.9A2.77,2.77,0,0,1,72.82,9v3.84H72V9.1a2.26,2.26,0,0,0-.54-1.63A1.89,1.89,0,0,0,70,6.9a2,2,0,0,0-1.51.6,2.52,2.52,0,0,0-.56,1.77v3.57h-.84V6.29h.84V7.41a2.16,2.16,0,0,1,.9-.92,2.75,2.75,0,0,1,1.33-.32A2.62,2.62,0,0,1,72.08,6.9Z"/><path d="M74.67,4.88a.61.61,0,0,1-.18-.45A.6.6,0,0,1,74.67,4a.63.63,0,0,1,.43-.17.64.64,0,0,1,.44.17.6.6,0,0,1,.18.44.61.61,0,0,1-.18.45.6.6,0,0,1-.44.18A.6.6,0,0,1,74.67,4.88Zm.85,1.41v6.55h-.84V6.29Z"/><path d="M78.52,7v4.07a1.19,1.19,0,0,0,.23.83,1.14,1.14,0,0,0,.81.22h.76v.72h-.9a1.83,1.83,0,0,1-1.32-.41,1.86,1.86,0,0,1-.43-1.36V7h-.91V6.29h.91V4.65h.85V6.29h1.8V7Z"/><path d="M87.38,6.29v6.55h-.84V11.69a2,2,0,0,1-.89.94,2.85,2.85,0,0,1-1.34.32,2.63,2.63,0,0,1-1.92-.72,2.82,2.82,0,0,1-.75-2.11V6.29h.83V10A2.33,2.33,0,0,0,83,11.66a2,2,0,0,0,1.46.56,2,2,0,0,0,1.52-.6,2.51,2.51,0,0,0,.56-1.76V6.29Z"/><path d="M91,6.51a2.6,2.6,0,0,1,1.39-.34v.88h-.22a2.12,2.12,0,0,0-1.47.49,2.11,2.11,0,0,0-.55,1.64v3.66H89.3V6.29h.84V7.46A2,2,0,0,1,91,6.51Z"/><path d="M99.55,9.89H94.11a2.53,2.53,0,0,0,.36,1.27,2.1,2.1,0,0,0,.85.8,2.5,2.5,0,0,0,1.15.27,2.34,2.34,0,0,0,1.38-.39,1.89,1.89,0,0,0,.74-1.07h.88a2.76,2.76,0,0,1-1,1.56,3.12,3.12,0,0,1-2,.61,3.36,3.36,0,0,1-1.65-.41,3,3,0,0,1-1.15-1.18,3.74,3.74,0,0,1-.41-1.78,3.67,3.67,0,0,1,.41-1.79A2.88,2.88,0,0,1,94.81,6.6a3.34,3.34,0,0,1,1.66-.4,3.22,3.22,0,0,1,1.64.4,2.85,2.85,0,0,1,1.08,1.1,3.15,3.15,0,0,1,.38,1.53C99.57,9.52,99.56,9.74,99.55,9.89ZM98.42,8a2,2,0,0,0-.83-.78,2.49,2.49,0,0,0-1.15-.26,2.29,2.29,0,0,0-1.6.6,2.39,2.39,0,0,0-.73,1.69h4.61A2.25,2.25,0,0,0,98.42,8Z"/><path d="M101.52,12.42a1.9,1.9,0,0,1-.8-1.42h.87a1.24,1.24,0,0,0,.52.89,2,2,0,0,0,1.24.34,1.65,1.65,0,0,0,1.07-.32,1,1,0,0,0,.39-.81.77.77,0,0,0-.21-.55,1.6,1.6,0,0,0-.55-.34c-.22-.08-.52-.17-.89-.27A10.65,10.65,0,0,1,102,9.56,2.07,2.07,0,0,1,101.2,9a1.5,1.5,0,0,1-.32-1,1.48,1.48,0,0,1,.29-.89,2,2,0,0,1,.81-.64,2.86,2.86,0,0,1,1.2-.24,2.59,2.59,0,0,1,1.71.53,2,2,0,0,1,.69,1.47h-.84a1.26,1.26,0,0,0-.45-.93,2,2,0,0,0-2.16,0A.92.92,0,0,0,102,8.59a1.62,1.62,0,0,0,.59.38,7.69,7.69,0,0,0,.93.31,9.38,9.38,0,0,1,1.13.37,2,2,0,0,1,.72.53,1.42,1.42,0,0,1,.31.92,1.57,1.57,0,0,1-.29,1,2,2,0,0,1-.8.65,2.78,2.78,0,0,1-1.19.24A3,3,0,0,1,101.52,12.42Z"/><path d="M121.24,10h0a.92.92,0,0,0,.35-.53l1-4.62s0-.08,0-.13h0V4.6c-.06-2.75-3-4.6-7.38-4.6s-7.32,1.84-7.4,4.59v.09h0a.8.8,0,0,0,0,.15L109,9.47a.9.9,0,0,0,.32.49l0,0h0a1.33,1.33,0,0,0,.77.24h.15l-.71,3c0,.08,0,.15.14.17h.52a.18.18,0,0,0,.17-.1l1.32-3.06h7.05l1.33,3.06a.18.18,0,0,0,.17.1h.49a.16.16,0,0,0,.17-.14v0l-.72-3h.23A1.3,1.3,0,0,0,121.24,10Zm0-.59a.5.5,0,0,1-.13.25l-1.31-1.23.47-3.88c.07-.34.81-.61,1.29-.54a.73.73,0,0,1,.67.63v0a.5.5,0,0,1,0,.12Zm-1.64-2.2a15,15,0,0,0-2.84-.55,8.94,8.94,0,0,1,1.69-4.52A2.47,2.47,0,0,1,120,4.45h0a0,0,0,0,1,0,0Zm-3.18-.58a15.62,15.62,0,0,0-2.37,0A9.2,9.2,0,0,0,112.33,2a8.11,8.11,0,0,1,2.88-.45,8.21,8.21,0,0,1,3,.48,8.9,8.9,0,0,0-1.73,4.63ZM112,2.09a8.88,8.88,0,0,1,1.71,4.56,14.69,14.69,0,0,0-2.81.54l-.45-2.74h0A2.47,2.47,0,0,1,112,2.09Zm-.91,6.22L111,7.48a15.23,15.23,0,0,1,8.62,0l-.1.83Zm4.11-8c3.84,0,6.46,1.39,7,3.61a1.31,1.31,0,0,0-.52-.2,2.12,2.12,0,0,0-1.36.34c-.23-1.82-2-2.82-5.07-2.82s-4.84,1-5.07,2.81a2.11,2.11,0,0,0-1.4-.32,1.22,1.22,0,0,0-.49.19C108.75,1.68,111.37.29,115.21.29Zm-7,4.5a.62.62,0,0,1,0-.13v0a.72.72,0,0,1,.64-.65H109c.46,0,1,.23,1.12.52l.64,3.91-1.28,1.24a.55.55,0,0,1-.12-.24Zm1.55,5.05L111,8.6h8.53l1.32,1.24a.9.9,0,0,1-.42.1H110.15A.87.87,0,0,1,109.73,9.84Zm.4,3.26H110l.68-2.87h.71Zm10.43,0h-.15l-1.25-2.87h.72Z"/></svg>